<?xml version="1.0" encoding="UTF-8"?>
<svg width="88px" height="36px" viewBox="0 0 88 36" version="1.1" xmlns="http://www.w3.org/2000/svg" xmlns:xlink="http://www.w3.org/1999/xlink">
    <!-- Generator: sketchtool 55.2 (78181) - https://sketchapp.com -->
    <title>AA033017-4A87-40F2-BBDB-13DBFE142235</title>
    <desc>Created with sketchtool.</desc>
    <defs>
        <polygon id="path-1" points="0 0.0509718574 87.1218912 0.0509718574 87.1218912 35.0318859 0 35.0318859"></polygon>
    </defs>
    <g id="Dashboard-UI---Assistant" stroke="none" stroke-width="1" fill="none" fill-rule="evenodd">
        <g id="Assistant---No-Order" transform="translate(-170.000000, -14.000000)">
            <g id="Header-Menu-/-Logged-In">
                <g id="Header-Menu-/-Logged-Out">
                    <g id="Brand-/-Logo" transform="translate(164.000000, 12.000000)">
                        <g id="new-logo" transform="translate(6.000000, 2.000000)">
                            <g id="Group-3" transform="translate(0.000000, 0.039084)">
                                <mask id="mask-2" fill="white">
                                    <use xlink:href="#path-1"></use>
                                </mask>
                                <g id="Clip-2"></g>
                                <path d="M69.6440375,0.0509628518 L17.4778537,0.0509628518 C7.86506567,0.0509628518 0,7.92161201 0,17.5413343 L0,17.5414244 C0,27.1612368 7.86506567,35.0318859 17.4778537,35.0318859 L69.6440375,35.0318859 C79.2568255,35.0318859 87.1218912,27.1612368 87.1218912,17.5414244 L87.1218912,17.5413343 C87.1218912,7.92161201 79.2568255,0.0509628518 69.6440375,0.0509628518" id="Fill-1" fill="#2354A5" mask="url(#mask-2)"></path>
                            </g>
                            <path d="M9.59768555,17.2809006 C9.59768555,13.1746041 12.7480345,10.2360675 16.9875242,10.2360675 C19.3406049,10.2360675 21.3047325,11.0923227 22.5883047,12.6492158 L20.5658206,14.5174334 C19.6517493,13.4665666 18.5043422,12.921636 17.1431415,12.921636 C14.5955392,12.921636 12.7870289,14.712045 12.7870289,17.2809006 C12.7870289,19.849666 14.5955392,21.640075 17.1431415,21.640075 C18.5043422,21.640075 19.6517493,21.0951445 20.5658206,20.0248255 L22.5883047,21.8930432 C21.3047325,23.4693884 19.3406049,24.3256435 16.968072,24.3256435 C12.7480345,24.3256435 9.59768555,21.3871069 9.59768555,17.2809006" id="Fill-4" fill="#FEFEFE"></path>
                            <path d="M36.278355,18.7793201 L34.1197058,13.5638904 L31.9611467,18.7793201 L36.278355,18.7793201 Z M37.2701448,21.1730161 L30.9499047,21.1730161 L29.7441411,24.0921006 L26.5159835,24.0921006 L32.5834356,10.4696465 L35.6949704,10.4696465 L41.7818747,24.0921006 L38.4758184,24.0921006 L37.2701448,21.1730161 Z" id="Fill-6" fill="#FEFEFE"></path>
                            <path d="M52.5161066,13.038403 L49.9491422,13.038403 L49.9491422,17.7868908 L52.5161066,17.7868908 C54.4414199,17.7868908 55.4137576,16.8916413 55.4137576,15.4126469 C55.4137576,13.9142004 54.4414199,13.038403 52.5161066,13.038403 L52.5161066,13.038403 Z M55.472024,24.0920916 L52.8467032,20.2972998 L52.6910859,20.2972998 L49.9491422,20.2972998 L49.9491422,24.0920916 L46.7987032,24.0920916 L46.7987032,10.4696375 L52.6910859,10.4696375 C56.3277388,10.4696375 58.6030109,12.3573073 58.6030109,15.4126469 C58.6030109,17.456024 57.5724068,18.9544705 55.8026206,19.7134649 L58.8557989,24.0920916 L55.472024,24.0920916 Z" id="Fill-8" fill="#FEFEFE"></path>
                            <path d="M64.572743,18.0981794 L64.572743,10.4696015 L67.7230919,10.4696015 L67.7230919,17.9814664 C67.7230919,20.5696841 68.8510469,21.6400931 70.756818,21.6400931 C72.6821313,21.6400931 73.7905441,20.5696841 73.7905441,17.9814664 L73.7905441,10.4696015 L76.9020788,10.4696015 L76.9020788,18.0981794 C76.9020788,22.107125 74.6073546,24.3255715 70.7373659,24.3255715 C66.8673771,24.3255715 64.572743,22.107125 64.572743,18.0981794" id="Fill-10" fill="#FEFEFE"></path>
                        </g>
                    </g>
                </g>
            </g>
        </g>
    </g>
</svg>