<?xml version="1.0" encoding="UTF-8"?>
<svg width="25px" height="23px" viewBox="0 0 25 23" version="1.1" xmlns="http://www.w3.org/2000/svg" xmlns:xlink="http://www.w3.org/1999/xlink">
    <!-- Generator: Sketch 64 (93537) - https://sketch.com -->
    <title>star</title>
    <desc>Created with Sketch.</desc>
    <g id="Landing" stroke="none" stroke-width="1" fill="none" fill-rule="evenodd">
        <g id="Landing-page-v3-pic3" transform="translate(-444.000000, -365.000000)" fill="#FFB600" fill-rule="nonzero">
            <g id="star" transform="translate(444.000000, 365.000000)">
                <path d="M18.9183099,22.9352113 C18.7239437,22.9352113 18.4971831,22.8704225 18.3028169,22.7732394 L12.3098592,19.6309859 L6.28450704,22.8056338 C5.83098592,23.0323944 5.31267606,23 4.92394366,22.7084507 C4.53521127,22.4169014 4.34084507,21.9309859 4.4056338,21.4450704 L5.53943662,14.7394366 L0.68028169,10.0098592 C0.323943662,9.65352113 0.194366197,9.16760563 0.356338028,8.68169014 C0.518309859,8.19577465 0.907042254,7.87183099 1.39295775,7.80704225 L8.09859155,6.83521127 L11.1112676,0.745070423 C11.3380282,0.291549296 11.7591549,0.0323943662 12.2774648,0.0323943662 C12.2774648,0.0323943662 12.2774648,0.0323943662 12.2774648,0.0323943662 C12.7633803,0.0323943662 13.2169014,0.323943662 13.443662,0.745070423 L13.443662,0.745070423 L16.456338,6.83521127 L23.1943662,7.80704225 C23.6802817,7.87183099 24.0690141,8.22816901 24.2309859,8.68169014 C24.3929577,9.16760563 24.2633803,9.65352113 23.9070423,10.0098592 L19.0478873,14.7394366 L20.1816901,21.4450704 C20.2788732,21.9309859 20.084507,22.4169014 19.6633803,22.7084507 C19.4690141,22.8704225 19.1774648,22.9352113 18.9183099,22.9352113 Z" id="Shape"></path>
            </g>
        </g>
    </g>
</svg>